<svg width="587" height="538" xmlns="http://www.w3.org/2000/svg" xmlns:xlink="http://www.w3.org/1999/xlink" overflow="hidden"><defs><filter id="fx0" x="-10%" y="-10%" width="120%" height="120%" filterUnits="userSpaceOnUse" primitiveUnits="userSpaceOnUse"><feComponentTransfer color-interpolation-filters="sRGB"><feFuncR type="discrete" tableValues="0 0"/><feFuncG type="discrete" tableValues="0 0"/><feFuncB type="discrete" tableValues="0 0"/><feFuncA type="linear" slope="0.4" intercept="0"/></feComponentTransfer><feGaussianBlur stdDeviation="6.66667 6.66667"/></filter><filter id="fx1" x="-10%" y="-10%" width="120%" height="120%" filterUnits="userSpaceOnUse" primitiveUnits="userSpaceOnUse"><feComponentTransfer color-interpolation-filters="sRGB"><feFuncR type="discrete" tableValues="0 0"/><feFuncG type="discrete" tableValues="0 0"/><feFuncB type="discrete" tableValues="0 0"/><feFuncA type="linear" slope="0.4" intercept="0"/></feComponentTransfer><feGaussianBlur stdDeviation="6.66667 6.66667"/></filter><filter id="fx2" x="-10%" y="-10%" width="120%" height="120%" filterUnits="userSpaceOnUse" primitiveUnits="userSpaceOnUse"><feComponentTransfer color-interpolation-filters="sRGB"><feFuncR type="discrete" tableValues="0 0"/><feFuncG type="discrete" tableValues="0 0"/><feFuncB type="discrete" tableValues="0 0"/><feFuncA type="linear" slope="0.4" intercept="0"/></feComponentTransfer><feGaussianBlur stdDeviation="6.66667 6.66667"/></filter><filter id="fx3" x="-10%" y="-10%" width="120%" height="120%" filterUnits="userSpaceOnUse" primitiveUnits="userSpaceOnUse"><feComponentTransfer color-interpolation-filters="sRGB"><feFuncR type="discrete" tableValues="0 0"/><feFuncG type="discrete" tableValues="0 0"/><feFuncB type="discrete" tableValues="0 0"/><feFuncA type="linear" slope="0.4" intercept="0"/></feComponentTransfer><feGaussianBlur stdDeviation="6.66667 6.66667"/></filter><filter id="fx4" x="-10%" y="-10%" width="120%" height="120%" filterUnits="userSpaceOnUse" primitiveUnits="userSpaceOnUse"><feComponentTransfer color-interpolation-filters="sRGB"><feFuncR type="discrete" tableValues="0 0"/><feFuncG type="discrete" tableValues="0 0"/><feFuncB type="discrete" tableValues="0 0"/><feFuncA type="linear" slope="0.4" intercept="0"/></feComponentTransfer><feGaussianBlur stdDeviation="6.22222 6.22222"/></filter><filter id="fx5" x="-10%" y="-10%" width="120%" height="120%" filterUnits="userSpaceOnUse" primitiveUnits="userSpaceOnUse"><feComponentTransfer color-interpolation-filters="sRGB"><feFuncR type="discrete" tableValues="0 0"/><feFuncG type="discrete" tableValues="0 0"/><feFuncB type="discrete" tableValues="0 0"/><feFuncA type="linear" slope="0.4" intercept="0"/></feComponentTransfer><feGaussianBlur stdDeviation="6.22222 6.22222"/></filter><filter id="fx6" x="-10%" y="-10%" width="120%" height="120%" filterUnits="userSpaceOnUse" primitiveUnits="userSpaceOnUse"><feComponentTransfer color-interpolation-filters="sRGB"><feFuncR type="discrete" tableValues="0 0"/><feFuncG type="discrete" tableValues="0 0"/><feFuncB type="discrete" tableValues="0 0"/><feFuncA type="linear" slope="0.4" intercept="0"/></feComponentTransfer><feGaussianBlur stdDeviation="6.22222 6.22222"/></filter><filter id="fx7" x="-10%" y="-10%" width="120%" height="120%" filterUnits="userSpaceOnUse" primitiveUnits="userSpaceOnUse"><feComponentTransfer color-interpolation-filters="sRGB"><feFuncR type="discrete" tableValues="0 0"/><feFuncG type="discrete" tableValues="0 0"/><feFuncB type="discrete" tableValues="0 0"/><feFuncA type="linear" slope="0.4" intercept="0"/></feComponentTransfer><feGaussianBlur stdDeviation="6.22222 6.22222"/></filter><filter id="fx8" x="-10%" y="-10%" width="120%" height="120%" filterUnits="userSpaceOnUse" primitiveUnits="userSpaceOnUse"><feComponentTransfer color-interpolation-filters="sRGB"><feFuncR type="discrete" tableValues="0 0"/><feFuncG type="discrete" tableValues="0 0"/><feFuncB type="discrete" tableValues="0 0"/><feFuncA type="linear" slope="0.4" intercept="0"/></feComponentTransfer><feGaussianBlur stdDeviation="6.22222 6.22222"/></filter><filter id="fx9" x="-10%" y="-10%" width="120%" height="120%" filterUnits="userSpaceOnUse" primitiveUnits="userSpaceOnUse"><feComponentTransfer color-interpolation-filters="sRGB"><feFuncR type="discrete" tableValues="0 0"/><feFuncG type="discrete" tableValues="0 0"/><feFuncB type="discrete" tableValues="0 0"/><feFuncA type="linear" slope="0.4" intercept="0"/></feComponentTransfer><feGaussianBlur stdDeviation="6.22222 6.22222"/></filter><clipPath id="clip10"><rect x="351" y="118" width="587" height="538"/></clipPath><clipPath id="clip11"><rect x="-3" y="-3" width="170" height="91"/></clipPath><clipPath id="clip12"><rect x="0" y="0" width="162" height="85"/></clipPath><clipPath id="clip13"><rect x="-3" y="-3" width="275" height="102"/></clipPath><clipPath id="clip14"><rect x="0" y="0" width="267" height="96"/></clipPath><clipPath id="clip15"><rect x="-3" y="-3" width="170" height="91"/></clipPath><clipPath id="clip16"><rect x="0" y="0" width="162" height="85"/></clipPath><clipPath id="clip17"><rect x="-3" y="-3" width="275" height="102"/></clipPath><clipPath id="clip18"><rect x="0" y="0" width="268" height="95"/></clipPath><linearGradient x1="486.322" y1="93.8221" x2="793.678" y2="626.178" gradientUnits="userSpaceOnUse" spreadMethod="reflect" id="fill19"><stop offset="0" stop-color="#054FC7"/><stop offset="0.41" stop-color="#054FC7"/><stop offset="1" stop-color="#05216F"/></linearGradient><linearGradient x1="636.31" y1="185.132" x2="673.688" y2="249.872" gradientUnits="userSpaceOnUse" spreadMethod="reflect" id="fill20"><stop offset="0" stop-color="#FFDC6D"/><stop offset="0.6" stop-color="#FFDC6D"/><stop offset="0.87" stop-color="#AC8300"/><stop offset="1" stop-color="#AC8300"/></linearGradient><linearGradient x1="695.902" y1="215.354" x2="658.576" y2="280.003" gradientUnits="userSpaceOnUse" spreadMethod="reflect" id="fill21"><stop offset="0" stop-color="#FFDC6D"/><stop offset="0.6" stop-color="#FFDC6D"/><stop offset="0.87" stop-color="#AC8300"/><stop offset="1" stop-color="#AC8300"/></linearGradient><linearGradient x1="699.499" y1="282.009" x2="624.848" y2="282.009" gradientUnits="userSpaceOnUse" spreadMethod="reflect" id="fill22"><stop offset="0" stop-color="#FFDC6D"/><stop offset="0.6" stop-color="#FFDC6D"/><stop offset="0.87" stop-color="#AC8300"/><stop offset="1" stop-color="#AC8300"/></linearGradient><linearGradient x1="643.69" y1="317.868" x2="606.312" y2="253.128" gradientUnits="userSpaceOnUse" spreadMethod="reflect" id="fill23"><stop offset="0" stop-color="#FFDC6D"/><stop offset="0.6" stop-color="#FFDC6D"/><stop offset="0.87" stop-color="#AC8300"/><stop offset="1" stop-color="#AC8300"/></linearGradient><linearGradient x1="584.098" y1="288.033" x2="621.423" y2="223.384" gradientUnits="userSpaceOnUse" spreadMethod="reflect" id="fill24"><stop offset="0" stop-color="#FFDC6D"/><stop offset="0.6" stop-color="#FFDC6D"/><stop offset="0.87" stop-color="#AC8300"/><stop offset="1" stop-color="#AC8300"/></linearGradient><linearGradient x1="580.536" y1="221.379" x2="655.187" y2="221.379" gradientUnits="userSpaceOnUse" spreadMethod="reflect" id="fill25"><stop offset="0" stop-color="#FFDC6D"/><stop offset="0.6" stop-color="#FFDC6D"/><stop offset="0.87" stop-color="#AC8300"/><stop offset="1" stop-color="#AC8300"/></linearGradient><linearGradient x1="734.407" y1="362.232" x2="573.593" y2="640.768" gradientUnits="userSpaceOnUse" spreadMethod="reflect" id="fill26"><stop offset="0" stop-color="#E75353"/><stop offset="0.52" stop-color="#E75353"/><stop offset="1" stop-color="#F99191"/></linearGradient><clipPath id="clip27"><rect x="-3" y="-3" width="209" height="497"/></clipPath><clipPath id="clip28"><rect x="0" y="0" width="201" height="491"/></clipPath><linearGradient x1="618.145" y1="387.081" x2="384.875" y2="345.949" gradientUnits="userSpaceOnUse" spreadMethod="reflect" id="fill29"><stop offset="0" stop-color="#FE9494"/><stop offset="0.44" stop-color="#FE9494"/><stop offset="0.73" stop-color="#DB3131"/><stop offset="1" stop-color="#DB3131"/></linearGradient><clipPath id="clip30"><rect x="-3" y="-3" width="237" height="470"/></clipPath><clipPath id="clip31"><rect x="0" y="0" width="231" height="464"/></clipPath><linearGradient x1="615.384" y1="372.738" x2="357.635" y2="327.29" gradientUnits="userSpaceOnUse" spreadMethod="reflect" id="fill32"><stop offset="0" stop-color="#FE9494"/><stop offset="0.44" stop-color="#FE9494"/><stop offset="0.73" stop-color="#DB3131"/><stop offset="1" stop-color="#DB3131"/></linearGradient><clipPath id="clip33"><rect x="-3" y="-3" width="265" height="456"/></clipPath><clipPath id="clip34"><rect x="0" y="0" width="258" height="447"/></clipPath><linearGradient x1="615.522" y1="369.29" x2="334.494" y2="319.737" gradientUnits="userSpaceOnUse" spreadMethod="reflect" id="fill35"><stop offset="0" stop-color="#FE9494"/><stop offset="0.44" stop-color="#FE9494"/><stop offset="0.73" stop-color="#DB3131"/><stop offset="1" stop-color="#DB3131"/></linearGradient><clipPath id="clip36"><rect x="-3" y="-3" width="209" height="497"/></clipPath><clipPath id="clip37"><rect x="0" y="0" width="202" height="491"/></clipPath><linearGradient x1="198.13" y1="246.167" x2="-36.1102" y2="204.864" gradientUnits="userSpaceOnUse" spreadMethod="reflect" id="fill38"><stop offset="0" stop-color="#FE9494"/><stop offset="0.44" stop-color="#FE9494"/><stop offset="0.73" stop-color="#DB3131"/><stop offset="1" stop-color="#DB3131"/></linearGradient><clipPath id="clip39"><rect x="-3" y="-3" width="237" height="470"/></clipPath><clipPath id="clip40"><rect x="0" y="0" width="231" height="464"/></clipPath><linearGradient x1="224.384" y1="234.738" x2="-33.3652" y2="189.29" gradientUnits="userSpaceOnUse" spreadMethod="reflect" id="fill41"><stop offset="0" stop-color="#FE9494"/><stop offset="0.44" stop-color="#FE9494"/><stop offset="0.73" stop-color="#DB3131"/><stop offset="1" stop-color="#DB3131"/></linearGradient><clipPath id="clip42"><rect x="-3" y="-3" width="265" height="456"/></clipPath><clipPath id="clip43"><rect x="0" y="0" width="257" height="448"/></clipPath><linearGradient x1="248.622" y1="228.719" x2="-31.6064" y2="179.307" gradientUnits="userSpaceOnUse" spreadMethod="reflect" id="fill44"><stop offset="0" stop-color="#FE9494"/><stop offset="0.44" stop-color="#FE9494"/><stop offset="0.73" stop-color="#DB3131"/><stop offset="1" stop-color="#DB3131"/></linearGradient><radialGradient cx="157162" cy="157162" r="222261" fx="0" fy="0" gradientUnits="userSpaceOnUse" spreadMethod="pad" id="fill45" gradientTransform="matrix(0.000104987 0 0 0.000104987 560 127)"><stop offset="0" stop-color="#FFD966"/><stop offset="0.47" stop-color="#FFD966"/><stop offset="1" stop-color="#C55A11"/></radialGradient><radialGradient cx="157162" cy="157162" r="222261" fx="0" fy="0" gradientUnits="userSpaceOnUse" spreadMethod="pad" id="fill46" gradientTransform="matrix(0.000104987 0 0 0.000104987 688 127)"><stop offset="0" stop-color="#FFD966"/><stop offset="0.47" stop-color="#FFD966"/><stop offset="1" stop-color="#C55A11"/></radialGradient></defs><g clip-path="url(#clip10)" transform="translate(-351 -118)"><g clip-path="url(#clip11)" filter="url(#fx0)" transform="translate(753 513)"><g clip-path="url(#clip12)"><path d="M89.1374 4.34466C138.208 20.2852 118.002 40.5735 105.013 43.472 92.0236 46.3701 64.6021 31.8788 31.4074 34.7769-1.78735 37.6754-10.4468-0.00268952 14.0884-0.00268952 38.6237-0.00268952 63.1588 15.9379 71.8185 15.9379 80.4777 15.9379 89.1374 4.34466 89.1374 4.34466Z" fill="#F2F2F2" fill-rule="evenodd" transform="matrix(-1 0 0 1 141.18 20.5701)"/></g></g><path d="M87.3896 4.25947C135.498 19.8875 115.688 39.7779 102.954 42.6196 90.2192 45.4609 63.3354 31.2537 30.7916 34.095-1.7523 36.9367-10.242-0.00263679 13.8122-0.00263679 37.8664-0.00263679 61.9204 15.6254 70.4103 15.6254 78.8997 15.6254 87.3896 4.25947 87.3896 4.25947Z" fill="#F2F2F2" fill-rule="evenodd" transform="matrix(-1 0 0 1 893 534)"/><g clip-path="url(#clip13)" filter="url(#fx1)" transform="translate(645 561)"><g clip-path="url(#clip14)"><path d="M188.741 8.75248C216.062 29.159 233.318 39.362 221.814 48.1077 210.31 56.8531 177.238 34.9894 122.596 48.1077 67.9541 61.2261 34.8814 45.1924 14.7502 34.9894-5.38108 24.7859-3.94307 20.4133 13.3122 18.9556 30.5677 17.4979 62.2023 0.00681708 83.7714 0.00681708 105.341 0.00681708 116.844 13.1251 136.975 13.1251 157.107 13.1251 188.741 8.75248 188.741 8.75248Z" fill="#F2F2F2" fill-rule="evenodd" transform="matrix(-1 0 0 1 246.21 21.4799)"/></g></g><path d="M185.041 8.58086C211.825 28.5873 228.743 38.5902 217.464 47.1644 206.187 55.7384 173.762 34.3033 120.192 47.1644 66.6217 60.0256 34.1975 44.3062 14.4609 34.3033-5.27557 24.2999-3.86576 20.013 13.0511 18.5839 29.9683 17.1548 60.9826 0.00668341 82.1288 0.00668341 103.275 0.00668341 114.553 12.8678 134.29 12.8678 154.026 12.8678 185.041 8.58086 185.041 8.58086Z" fill="#F2F2F2" fill-rule="evenodd" transform="matrix(-1 0 0 1 889 583)"/><g clip-path="url(#clip15)" filter="url(#fx2)" transform="translate(365 511)"><g clip-path="url(#clip16)"><path d="M109.957 24.9147C159.027 40.8553 138.822 61.1436 125.833 64.042 112.843 66.9401 85.4218 52.4489 52.2271 55.347 19.0324 58.2455 10.3729 20.5674 34.9081 20.5674 59.4434 20.5674 83.9785 36.508 92.6382 36.508 101.297 36.508 109.957 24.9147 109.957 24.9147Z" fill="#F2F2F2" fill-rule="evenodd"/></g></g><path d="M474.39 536.259C522.498 551.888 502.688 571.778 489.954 574.62 477.219 577.461 450.335 563.254 417.792 566.095 385.248 568.937 376.758 531.997 400.812 531.997 424.866 531.997 448.92 547.625 457.41 547.625 465.9 547.625 474.39 536.259 474.39 536.259Z" fill="#F2F2F2" fill-rule="evenodd"/><g clip-path="url(#clip17)" filter="url(#fx3)" transform="translate(367 561)"><g clip-path="url(#clip18)"><path d="M210.375 30.074C237.819 50.0881 255.153 60.0949 243.597 68.6724 232.042 77.2497 198.819 55.8064 143.93 68.6724 89.0414 81.5386 55.819 65.8131 35.5967 55.8064 15.3744 45.7991 16.8189 41.5106 34.1522 40.0809 51.4858 38.6513 83.2635 21.4966 104.93 21.4966 126.597 21.4966 138.153 34.3626 158.375 34.3626 178.597 34.3626 210.375 30.074 210.375 30.074Z" fill="#F2F2F2" fill-rule="evenodd"/></g></g><path d="M575.878 591.416C602.784 611.038 619.778 620.848 608.448 629.257 597.12 637.666 564.549 616.644 510.736 629.257 456.923 641.871 424.352 626.454 404.526 616.644 384.701 606.833 386.117 602.628 403.11 601.227 420.104 599.825 451.259 583.007 472.5 583.007 493.742 583.007 505.071 595.62 524.897 595.62 544.723 595.62 575.878 591.416 575.878 591.416Z" fill="#F2F2F2" fill-rule="evenodd"/><path d="M415 360C415 235.736 515.736 135 640 135 764.264 135 865 235.736 865 360 865 484.264 764.264 585 640 585 515.736 585 415 484.264 415 360Z" fill="url(#fill19)" fill-rule="evenodd"/><path d="M643.404 183.973 669.999 234.382 639.999 252.002 639.999 184.844C639.999 183.827 640.809 183.002 641.809 183.002 642.475 183.002 643.089 183.375 643.404 183.973Z" fill="url(#fill20)" fill-rule="evenodd"/><path d="M700.266 220.831 670.284 269.229 639.914 251.693 697.791 218.278C698.668 217.772 699.789 218.072 700.295 218.948 700.632 219.533 700.621 220.256 700.266 220.831Z" fill="url(#fill21)" fill-rule="evenodd"/><path d="M696.938 288.526 640.033 286.761 640.034 251.691 697.911 285.107C698.788 285.613 699.088 286.734 698.582 287.61 698.245 288.195 697.613 288.547 696.938 288.526Z" fill="url(#fill22)" fill-rule="evenodd"/><path d="M636.596 319.027 610.001 268.618 640.001 250.998 640.001 318.156C640.001 319.173 639.191 319.998 638.191 319.998 637.525 319.998 636.911 319.625 636.596 319.027Z" fill="url(#fill23)" fill-rule="evenodd"/><path d="M579.734 282.557 609.715 234.158 640.086 251.694 582.208 285.109C581.332 285.616 580.211 285.315 579.705 284.439 579.367 283.854 579.378 283.131 579.734 282.557Z" fill="url(#fill24)" fill-rule="evenodd"/><path d="M583.097 214.861 640.002 216.627 640.001 251.696 582.123 218.28C581.247 217.774 580.946 216.654 581.452 215.777 581.79 215.192 582.422 214.84 583.097 214.861Z" fill="url(#fill25)" fill-rule="evenodd"/><path d="M722 264.48 741.098 264.48 747 245 752.902 264.48 772 264.48 756.549 276.52 762.451 296 747 283.96 731.549 296 737.451 276.52Z" fill="#FCCD56" fill-rule="evenodd"/><path d="M508 264.48 527.098 264.48 533 245 538.902 264.48 558 264.48 542.549 276.52 548.451 296 533 283.96 517.549 296 523.451 276.52Z" fill="#FCCD56" fill-rule="evenodd"/><path d="M483 353.48 502.48 353.48 508.5 334 514.52 353.48 534 353.48 518.24 365.52 524.26 385 508.5 372.96 492.74 385 498.76 365.52Z" fill="#FCCD56" fill-rule="evenodd"/><path d="M670 328.48 689.48 328.48 695.5 309 701.52 328.48 721 328.48 705.24 340.52 711.26 360 695.5 347.96 679.74 360 685.76 340.52Z" fill="#FCCD56" fill-rule="evenodd"/><path d="M746 353.48 765.48 353.48 771.5 334 777.52 353.48 797 353.48 781.24 365.52 787.26 385 771.5 372.96 755.74 385 761.76 365.52Z" fill="#FCCD56" fill-rule="evenodd"/><path d="M560 328.48 579.48 328.48 585.5 309 591.52 328.48 611 328.48 595.24 340.52 601.26 360 585.5 347.96 569.74 360 575.76 340.52Z" fill="#FCCD56" fill-rule="evenodd"/><path d="M718.546 418 831 478.914 826.732 485.929C786.294 545.701 717.812 585 640.139 585 578 585 521.744 559.849 481.023 519.185L477 514.765 480.907 513.741C504.776 507.624 549.182 497.665 551.189 490.151 553.659 480.901 555.388 470.851 561.688 466.718 604.916 438.351 718.546 418 718.546 418Z" fill="url(#fill26)" fill-rule="evenodd"/><path d="M661.998 464.399 680.812 480.684 688.812 475.465 681.262 469.747C681.262 469.747 694.656 466.431 700.096 462.129 705.535 457.827 715.797 455.753 715.797 455.753 715.797 455.753 718.424 470.33 722.302 480.27 725.277 487.896 741.115 498.994 741.115 498.994L757.998 489.373C757.998 489.373 742.079 479.597 736.86 471.919 722.958 451.468 723.968 435.994 723.968 435.994L717.44 437.411C717.44 437.411 718.804 441.126 713.116 445.002 707.427 448.876 702.311 442.738 693.082 447.344 684.771 451.494 685.26 457.965 678.244 459.514 675.148 460.195 671.378 457.856 671.378 457.856Z" fill="#F2F2F2" fill-rule="evenodd"/><path d="M570.427 484.294C573.829 484.533 582.057 489.1 582.057 489.1 597.091 494.146 618.411 507.043 629.843 514.683 641.275 522.328 652.715 537.947 662.038 543.165 670.778 548.052 708.793 564.015 716.956 570.458L717.884 571.34 707.04 575.309 698.66 577.464 695.376 575.641C684.823 569.699 673.747 563.079 671.656 560.366 667.479 554.942 646.486 545.488 634.975 538.98 623.464 532.476 609.525 528.075 602.958 524.193 596.392 520.311 592.94 512.659 588.642 508.941 584.344 505.218 567.689 498.917 566.267 494.827 564.844 490.738 567.024 484.054 570.427 484.294Z" fill="#F99191" fill-rule="evenodd"/><g clip-path="url(#clip27)" filter="url(#fx4)" transform="translate(405 121)"><g clip-path="url(#clip28)"><path d="M181.01 20.0153C181.01 20.0153 89.3662 110.727 76.6378 136.279 63.9093 161.831 51.1809 243.599 51.1809 260.209 51.1809 276.816 75.3649 444.188 75.3649 444.188L29.5428 471.015C29.5428 471.015 14.906 299.704 21.906 255.098 28.1593 215.248 34.3541 158.812 72.819 106.893 104.548 64.0673 181.01 20.0153 181.01 20.0153Z" fill="#FF0000" fill-rule="evenodd"/></g></g><path d="M582.01 141.015C582.01 141.015 490.366 231.727 477.638 257.279 464.909 282.831 452.181 364.599 452.181 381.209 452.181 397.816 476.365 565.188 476.365 565.188L430.543 592.015C430.543 592.015 415.906 420.704 422.906 376.098 429.159 336.248 435.354 279.812 473.819 227.893 505.548 185.067 582.01 141.015 582.01 141.015Z" fill="url(#fill29)" fill-rule="evenodd"/><g clip-path="url(#clip30)" filter="url(#fx5)" transform="translate(375 118)"><g clip-path="url(#clip31)"><path d="M211.009 20.0142C211.009 20.0142 116.954 97.3806 99.7657 120.906 65.2418 168.158 61.4059 251.17 57.57 280.544 53.7339 309.917 72.9139 429.966 72.9139 429.966 72.9139 429.966 53.7339 426.133 48.6193 431.242 43.5046 436.352 24.3249 444.014 24.3249 444.014 24.3249 444.014 16.6528 373.773 21.7674 332.904 26.882 292.039 31.9967 193.7 49.898 154.11 65.439 119.74 125.07 68.1888 145.798 50.6645 162.589 36.4688 211.009 20.0142 211.009 20.0142Z" fill="#FF0000" fill-rule="evenodd"/></g></g><path d="M582.009 138.014C582.009 138.014 487.954 215.381 470.766 238.906 436.242 286.158 432.406 369.17 428.57 398.544 424.734 427.917 443.914 547.966 443.914 547.966 443.914 547.966 424.734 544.133 419.619 549.242 414.505 554.352 395.325 562.014 395.325 562.014 395.325 562.014 387.653 491.773 392.767 450.904 397.882 410.039 402.997 311.7 420.898 272.11 436.439 237.74 496.07 186.189 516.798 168.665 533.589 154.469 582.009 138.014 582.009 138.014Z" fill="url(#fill32)" fill-rule="evenodd"/><g clip-path="url(#clip33)" filter="url(#fx6)" transform="translate(350 121)"><g clip-path="url(#clip34)"><path d="M238.008 20.0133C180.392 54.4615 106.131 119.531 90.7665 151.427 75.4023 183.323 58.7576 313.461 53.6362 358.115 48.5147 402.77 57.4772 414.254 57.4772 414.254L20.3466 427.013C20.3466 427.013 17.7859 367.046 26.7485 300.702 35.0904 238.951 39.1925 202.705 66.4395 147.599 97.8301 84.1143 165.028 46.8066 177.831 41.7028 190.635 36.5994 238.008 20.0133 238.008 20.0133Z" fill="#FF0000" fill-rule="evenodd"/></g></g><path d="M584.008 141.013C526.392 175.462 452.131 240.531 436.766 272.427 421.402 304.323 404.758 434.461 399.636 479.115 394.515 523.77 403.477 535.254 403.477 535.254L366.347 548.013C366.347 548.013 363.786 488.046 372.748 421.702 381.09 359.951 385.193 323.705 412.44 268.599 443.83 205.114 511.028 167.807 523.831 162.703 536.635 157.599 584.008 141.013 584.008 141.013Z" fill="url(#fill35)" fill-rule="evenodd"/><g clip-path="url(#clip36)" filter="url(#fx7)" transform="translate(682 120)"><g clip-path="url(#clip37)"><path d="M162.01 0.0152703C162.01 0.0152703 69.7971 90.7266 56.9896 116.279 44.1821 141.831 31.3746 223.599 31.3746 240.209 31.3746 256.816 55.7088 424.188 55.7088 424.188L9.60204 451.015C9.60204 451.015-5.12566 279.704 1.91782 235.098 8.21 195.248 14.4432 138.812 53.1471 86.8935 85.0734 44.0673 162.01 0.0152703 162.01 0.0152703Z" fill="#FF0000" fill-rule="evenodd" transform="matrix(-1 0 0 1 182 20)"/></g></g><path d="M162.01 0.0152703C162.01 0.0152703 69.7971 90.7266 56.9896 116.279 44.1821 141.831 31.3746 223.599 31.3746 240.209 31.3746 256.816 55.7088 424.188 55.7088 424.188L9.60204 451.015C9.60204 451.015-5.12566 279.704 1.91782 235.098 8.21 195.248 14.4432 138.812 53.1471 86.8935 85.0734 44.0673 162.01 0.0152703 162.01 0.0152703Z" fill="url(#fill38)" fill-rule="evenodd" transform="matrix(-1 0 0 1 860 140)"/><g clip-path="url(#clip39)" filter="url(#fx8)" transform="translate(683 117)"><g clip-path="url(#clip40)"><path d="M191.009 0.0142212C191.009 0.0142212 96.9536 77.3806 79.7657 100.906 45.2418 148.158 41.4059 231.17 37.57 260.544 33.7339 289.917 52.9139 409.966 52.9139 409.966 52.9139 409.966 33.7339 406.133 28.6193 411.242 23.5046 416.352 4.32493 424.014 4.32493 424.014 4.32493 424.014-3.34721 353.773 1.76739 312.904 6.88199 272.039 11.9967 173.7 29.898 134.11 45.439 99.7402 105.07 48.1888 125.798 30.6645 142.589 16.4688 191.009 0.0142212 191.009 0.0142212Z" fill="#FF0000" fill-rule="evenodd" transform="matrix(-1 0 0 1 211 20)"/></g></g><path d="M191.009 0.0142212C191.009 0.0142212 96.9536 77.3806 79.7657 100.906 45.2418 148.158 41.4059 231.17 37.57 260.544 33.7339 289.917 52.9139 409.966 52.9139 409.966 52.9139 409.966 33.7339 406.133 28.6193 411.242 23.5046 416.352 4.32493 424.014 4.32493 424.014 4.32493 424.014-3.34721 353.773 1.76739 312.904 6.88199 272.039 11.9967 173.7 29.898 134.11 45.439 99.7402 105.07 48.1888 125.798 30.6645 142.589 16.4688 191.009 0.0142212 191.009 0.0142212Z" fill="url(#fill41)" fill-rule="evenodd" transform="matrix(-1 0 0 1 890 137)"/><g clip-path="url(#clip42)" filter="url(#fx9)" transform="translate(681 119)"><g clip-path="url(#clip43)"><path d="M217.008 0.0132928C159.656 34.5462 85.7356 99.7751 70.4418 131.75 55.1481 163.725 38.5798 294.182 33.4819 338.946 28.3839 383.71 37.3053 395.223 37.3053 395.223L0.345057 408.013C0.345057 408.013-2.20394 347.898 6.7175 281.391 15.0212 219.489 19.1045 183.154 46.2265 127.913 77.4731 64.2718 144.362 26.8724 157.107 21.7561 169.852 16.6402 217.008 0.0132928 217.008 0.0132928Z" fill="#FF0000" fill-rule="evenodd" transform="matrix(-1 0 0 1 237 20)"/></g></g><path d="M217.008 0.0132928C159.656 34.5462 85.7356 99.7751 70.4418 131.75 55.1481 163.725 38.5798 294.182 33.4819 338.946 28.3839 383.71 37.3053 395.223 37.3053 395.223L0.345057 408.013C0.345057 408.013-2.20394 347.898 6.7175 281.391 15.0212 219.489 19.1045 183.154 46.2265 127.913 77.4731 64.2718 144.362 26.8724 157.107 21.7561 169.852 16.6402 217.008 0.0132928 217.008 0.0132928Z" fill="url(#fill44)" fill-rule="evenodd" transform="matrix(-1 0 0 1 914 139)"/><path d="M560 143.5C560 134.387 567.387 127 576.5 127 585.613 127 593 134.387 593 143.5 593 152.613 585.613 160 576.5 160 567.387 160 560 152.613 560 143.5Z" fill="url(#fill45)" fill-rule="evenodd"/><path d="M688 143.5C688 134.387 695.387 127 704.5 127 713.613 127 721 134.387 721 143.5 721 152.613 713.613 160 704.5 160 695.387 160 688 152.613 688 143.5Z" fill="url(#fill46)" fill-rule="evenodd"/></g></svg>